<svg xmlns="http://www.w3.org/2000/svg" xmlns:xlink="http://www.w3.org/1999/xlink" width="264px" height="280px" viewBox="0 0 264 280" version="1.1">
    <title id="transparent_Title">Avataaar/Default</title>
    <desc>Created with python_avatars</desc>
    <defs>
        <path d="M100,0 C130.927946,-5.68137151e-15 156,25.072054 156,56 L156.000809,62.1660527 C161.675838,63.1185422 166,68.05429 166,74 L166,88 C166,94.0524166 161.519235,99.0582945 155.693975,99.8813638 C153.627928,119.686472 141.237929,136.421678 124.001014,144.610469 L124,163 L128,163 C167.764502,163 200,195.235498 200,235 L200,244 L0,244 L0,235 C-4.86974701e-15,195.235498 32.235498,163 72,163 L76,163 L75.9999836,144.610943 C58.7625487,136.422324 46.3721119,119.686854 44.3051107,99.8809698 C38.480765,99.0582945 34,94.0524166 34,88 L34,74 C34,68.053942 38.3246685,63.1179645 44.0001873,62.1658855 L44,56 C44,25.072054 69.072054,5.68137151e-15 100,0 Z" id="transparent_path-1" />
        <path d="M83,36.3476251 C83,52.6289957 105.161905,65.8276544 132.5,65.8276544 C159.838095,65.8276544 182,52.6289957 182,36.3476251 C182,34.9853134 181.844841,33.6445843 181.544472,32.3313638 C210.784239,41.4879251 232,68.792221 232,101.051724 L232,110 L32,110 L32,101.051724 C32,68.3970853 53.7386736,40.8197864 83.5337207,32.0021267 C83.1821692,33.4207025 83,34.871494 83,36.3476251 Z" id="transparent_path-3" />
        <rect id="transparent_path-5" x="0" y="0" width="264" height="280" />
        <path d="M74,0 C114.869071,0 148,33.1309285 148,74 L148,84.1482318 L148,197.608051 C135.525121,187.236892 119.490913,181 102,181 L102,181 L98,181 L98,162.610951 C115.530782,154.282984 128.048193,137.114792 129.791419,116.867187 C135.569129,116.002364 140,111.018625 140,105 L140,105 L140,92 C140,87.3536213 137.359271,83.3240177 133.496777,81.3301515 C132.723933,81.0500337 131.951808,80.748163 131.180891,80.4262497 C130.794819,80.3202581 130.400778,80.2331546 130,80.1659169 L130,80.1659169 L130.000458,79.9172528 C117.224481,74.2339715 104.877985,63.0706967 96.1104311,47.8848473 C93.1752556,42.8009742 90.8310687,37.5951441 89.0661426,32.3970356 C80.4313947,42.9409152 67.7445474,53.6023901 52.3415164,62.4953343 C42.777598,68.0170651 33.1467898,72.2910056 24,75.2659587 L24.0003852,137.246608 C29.6019576,148.318362 38.7728825,157.277529 50,162.610951 L50,162.610951 L50,181 L46,181 C38.3273639,181 30.9350359,182.200142 24.0004995,184.422941 L24,230 C24,244.105888 13.5691766,255.775526 0,257.716445 L0,74 C0,33.1309285 33.1309285,0 74,0 Z" id="transparent_path-7" />
    </defs>
    <g id="transparent_Avataaar/Default" stroke="none" stroke-width="1" fill="none" fill-rule="evenodd">
        <g id="transparent_Body" transform="translate(32.000000, 36.000000)">
            <mask id="transparent_mask-2" fill="white">
                <use xlink:href="#transparent_path-1" />
            </mask>
            <use fill="#D0C6AC" xlink:href="#transparent_path-1" />
            <g id="transparent_Skin-Color" mask="url(#transparent_mask-2)" fill="#FFDBB4">
                <g transform="translate(-32.000000, 0.000000)" id="transparent_Color">
                    <rect x="0" y="0" width="264" height="244" />
                </g>
            </g>
            <path d="M44,94 C44,124.927946 69.072054,150 100,150 C130.927946,150 156,124.927946 156,94 L156,94 L156,102 C156,132.927946 130.927946,158 100,158 C69.072054,158 44,132.927946 44,102 Z" id="transparent_Neck-Shadow" fill-opacity="0.100000001" fill="#000000" mask="url(#transparent_mask-2)" />
        </g>
        <g id="transparent_Clothing" transform="translate(0.000000, 170.000000)">
            
        <defs>
        <path d="M99,32.5 C99,44.3741221 113.998461,54 132.5,54 C151.001539,54 166,44.3741221 166,32.5 C166,31.4019929 165.871751,30.3232102 165.624342,29.2694852 C202.75978,32.1370674 232,63.1796858 232,101.051724 L232,110 L32,110 L32,101.051724 C32,62.8342194 61.7761079,31.571298 99.3946469,29.196636 C99.1341902,30.2738104 99,31.3768477 99,32.5 Z" id="graphic_shirt_path-1" />
    </defs>
    <g id="graphic_shirt_Clothing/Graphic-Shirt" stroke="none" stroke-width="1" fill="none" fill-rule="evenodd">
        <mask id="graphic_shirt_mask-2" fill="white">
            <use xlink:href="#graphic_shirt_path-1" />
        </mask>
        <use id="graphic_shirt_Clothes" fill="#E6E6E6" xlink:href="#graphic_shirt_path-1" />
        <g id="graphic_shirt_Fabric-Color" mask="url(#graphic_shirt_mask-2)" fill="#65C9FF">
            <rect id="graphic_shirt_ðŸ–Color" x="0" y="0" width="264" height="110" />
        </g>
        <g id="graphic_shirt_Graphic" fill="#FFFFFF" transform="translate(77.000000, 58.000000)">
        <g id="bat_Clothing/Graphic/Bat" stroke="none" stroke-width="1" fill="none" fill-rule="evenodd">
        <path d="M87.6852404,13.4031978 C86.29151,6.97182978 81.4755637,3.2534243 75.1844381,1.81688169 C72.6586144,1.2402574 64.2721154,-0.570361088 65.5784818,4.22465302 C66.1709196,6.39748644 65.8414841,8.18940114 64.0250388,9.99135202 C62.2550056,11.7463153 58.793658,12.1906445 57.0732221,9.97994727 C55.5989529,8.08493361 57.5000322,5.25883596 56.3515582,3.41309083 C55.9056373,2.69596 55.1361961,2.32963935 54.323983,2.68090573 C53.1827893,3.17450341 53.7902429,4.23560158 53.2510425,4.99880761 C52.4024277,6.20178089 52.005649,5.82542406 51.2416681,4.6261003 C50.7616206,3.87247426 51.2334777,3.05133209 49.9949096,2.72926188 C48.5615922,2.35655457 48.0924652,3.5572469 47.9627841,4.65164695 C47.8813352,5.33866923 48.2849392,6.44356164 48.2990449,7.14016392 C48.3263462,8.50417231 48.2084956,10.4630526 47.5741958,11.668763 C46.449383,13.8060136 44.8695487,13.1221847 43.1909749,11.7645629 C41.2107218,10.1633357 40.6296595,8.3800886 41.0127875,5.94768301 C41.4719041,3.03125972 41.3053663,0.239376333 37.7334484,2.06368053 C32.7127425,4.62792506 28.0537786,9.19894983 25.144827,13.9830154 C22.6999971,18.0025063 20.7757117,22.8759851 22.9416134,27.4556775 C25.1521073,32.1307136 28.8036539,36.1460988 33.9080837,37.3394921 C35.2294658,37.6483328 38.9997729,39.1501106 40.2533568,37.8905698 C42.1999383,35.9335142 37.7052371,34.1082977 36.8179454,32.9158167 C35.5598113,31.2256324 34.4805006,28.0012808 35.8614905,26.0944062 C37.6206031,23.6670187 39.4602546,25.0200786 40.9063125,26.7376343 C42.0415909,28.085676 43.6550967,31.5636693 45.4119342,28.759925 C46.621381,26.8288723 46.513086,23.6583511 49.812446,25.0433443 C54.5269225,27.0213845 54.6716193,36.1552226 55.5120438,40.3343801 C55.879246,42.1637024 57.5473544,44.3981215 58.9829469,41.8594236 C59.7719539,40.4634819 59.3460539,37.437573 59.2022672,35.9960123 C58.9055932,33.0111605 58.1225014,30.0760334 59.092607,27.1190092 C59.6536484,25.4082963 61.093336,22.9594679 63.2223811,24.2751201 C64.9469121,25.3407802 64.2284333,30.0910877 66.5745236,30.0824201 C68.6412307,30.075121 68.0774592,26.2910242 69.1777009,25.0433443 C70.8571848,23.1387506 74.0937518,24.0442879 75.0870635,26.2919365 C76.4243714,29.3169331 72.88476,31.4176885 73.0435625,34.0768205 C73.1982698,36.6684365 76.5376717,35.657063 77.9345873,34.9996931 C80.8057722,33.6493704 83.0526678,31.1467116 84.6097509,28.428731 C87.0172691,24.2253954 88.7354298,18.2068795 87.6852404,13.4031978" id="bat_Batman!" fill="#FFFFFF" />
    </g>
</g>
    </g>
</g>
        <g id="transparent_Face" transform="translate(76.000000, 82.000000)" fill="#000000">
            <g id="transparent_Mouth" transform="translate(2.000000, 52.000000)">    
                
            <g id="serious_Mouth/Serious" stroke="none" stroke-width="1" fill="none" fill-rule="evenodd" fill-opacity="0.699999988">
        <rect id="serious_Why-so-serious?" fill="#000000" x="42" y="18" width="24" height="6" rx="3" />
    </g>
</g>
            <g id="transparent_Nose" transform="translate(28.000000, 40.000000)" fill-opacity="0.16">
                
            <g id="default_Nose/Default" stroke="none" stroke-width="1" fill="none" fill-rule="evenodd" fill-opacity="0.16">
        <path d="M16,8 C16,12.418278 21.372583,16 28,16 L28,16 C34.627417,16 40,12.418278 40,8" id="default_Nose" fill="#000000" />
    </g>
</g>
            <g id="transparent_Eyes" transform="translate(0.000000, 8.000000)">
                
            <g id="default_Eyes/Default-ðŸ˜€" stroke="none" stroke-width="1" fill="none" fill-rule="evenodd" fill-opacity="0.599999964">
        <circle id="default_Eye" fill="#000000" cx="30" cy="22" r="6" />
        <circle id="default_Eye" fill="#000000" cx="82" cy="22" r="6" />
    </g>
</g>
            <g id="transparent_Eyebrow" fill-opacity="0.599999964">
                
            <g id="default_natural_Eyebrow/Natural/Default-Natural" stroke="none" stroke-width="1" fill="none" fill-rule="evenodd" fill-opacity="0.599999964">
        <path d="M26.0390934,6.21012364 C20.2775554,6.98346216 11.2929313,12.0052479 12.04426,17.8178111 C12.0689481,18.0080543 12.3567302,18.0673468 12.4809077,17.9084937 C14.9674041,14.7203351 34.1927973,10.0365481 41.1942673,11.0147151 C41.8350523,11.1044465 42.2580662,10.4430343 41.8210501,10.0302067 C38.0765663,6.49485426 31.2003792,5.51224825 26.0390934,6.21012364" id="default_natural_Eyebrow" fill="#000000" transform="translate(27.000000, 12.000000) rotate(5.000000) translate(-27.000000, -12.000000) " />
        <path d="M85.0390934,6.21012364 C79.2775554,6.98346216 70.2929313,12.0052479 71.04426,17.8178111 C71.0689481,18.0080543 71.3567302,18.0673468 71.4809077,17.9084937 C73.9674041,14.7203351 93.1927973,10.0365481 100.194267,11.0147151 C100.835052,11.1044465 101.258066,10.4430343 100.82105,10.0302067 C97.0765663,6.49485426 90.2003792,5.51224825 85.0390934,6.21012364" id="default_natural_Eyebrow" fill="#000000" transform="translate(86.000000, 12.000000) scale(-1, 1) rotate(5.000000) translate(-86.000000, -12.000000) " />
    </g>
</g>
        </g>
        <g id="transparent_Top">
            
        <defs>
        <path d="M198.74696,37.856181 C193.606255,34.0244119 187.528383,30.7396605 181.187893,29.4782789 C174.741035,28.1960616 170.829392,27.8846292 164.483286,29.4052984 C162.85043,29.796545 162.299428,30.1854765 160.862131,29.2568033 C159.651446,28.4743102 151.200134,19.7668788 125.441738,24.5998777 C99.4069464,29.4847361 91.6728211,68.675365 82.0154166,70.1662691 C78.5349852,70.703365 74.2336661,69.781637 74.0992189,67.6388757 C70.1355043,73.6726057 69.0913088,81.6460323 70.7717335,88.7129442 C72.2186099,94.7989286 75.2686121,100.517478 80.7607964,103.849523 C85.4865987,106.716901 92.0203357,107.966046 97.4817987,107.437218 C99.9669245,107.196782 102.227091,106.673576 104.513684,105.671152 C107.272659,104.461694 109.470722,102.280238 112.177835,101.127995 C109.351471,103.576015 106.275372,105.735312 103.001731,107.546357 C101.362599,108.452872 99.6980301,109.07761 97.8887739,109.570058 C96.6533133,109.906073 94.127556,111.05104 92.9327267,110.752066 C100.740244,112.148383 108.093217,110.931649 115.252282,107.589351 C118.483309,106.08125 121.59079,104.256976 124.44325,102.112561 C127.276221,99.9826977 130.537639,97.8062025 132.753871,95.0036468 C131.823641,96.2071517 133.450882,94.4169423 133.665931,94.1980029 C134.274082,93.578226 134.869349,92.9458816 135.453055,92.302954 C136.455298,91.1993278 137.450603,90.0751967 138.383805,88.9120401 C140.37772,86.426318 142.234875,83.8298033 143.891185,81.1086057 C145.568637,78.352682 152.249704,67.2357231 154.266412,64.6190342 C152.361358,70.327001 150.286511,76.0372828 147.858864,81.5445 C152.572444,80.0744315 157.142657,76.0002417 160.15401,72.2035294 C163.545911,67.9275978 165.554691,62.9359795 166.262273,57.5379012 C170.087576,67.953725 179.047309,76.1675881 188.294435,81.8328914 C186.29094,78.1026546 183.238626,74.9478777 181.242068,71.1548033 C190.433037,80.4838679 205.809898,85.0481908 209.837367,98.7289227 C210.869671,93.9714569 214.189889,90.1482867 215.184533,85.2955724 C216.28885,79.9070851 217.081329,74.1868816 216.90592,68.6796644 C216.508524,56.4379129 208.273882,44.9574883 198.74696,37.856181 Z" id="shaggy_path-1" />
    </defs>
    <g id="shaggy_Top/Short-Hair/Shaggy" stroke="none" stroke-width="1" fill="none" fill-rule="evenodd" transform="translate(-1 0)">
        <g id="shaggy_Facial-Hair" transform="translate(49.000000, 72.000000)"><defs>
        <path d="M65.1802189,77.7372986 C67.3631845,76.1045334 80.4065113,75.4786511 82.757829,74.0894494 C83.4916461,73.6553857 84.0610723,73.215719 84.4997781,72.7800074 C84.938814,73.215719 85.5085703,73.6553857 86.2423874,74.0894494 C88.593375,75.4786511 101.636702,76.1045334 103.819667,77.7372986 C106.030032,79.3908276 107.643571,83.1846831 107.466966,86.15095 C107.255041,89.7101408 103.361486,98.2028927 93.6723269,99.1811016 C91.5576925,96.8281927 88.2368647,95.3104528 84.4997781,95.3104528 C80.7633517,95.3104528 77.4421938,96.8281927 75.3275594,99.1811016 C65.6387308,98.2028927 61.7451757,89.7101408 61.5332501,86.15095 C61.3566455,83.1846831 62.9701849,79.3908276 65.1802189,77.7372986 M103.141638,94.9063813 C103.142958,94.9057221 103.144609,94.905063 103.145929,94.9047334 C103.144278,94.905063 103.142958,94.9057221 103.141638,94.9063813 M65.8453747,94.9014375 C65.8493359,94.9030855 65.8565982,94.9057221 65.8618798,94.9076997 C65.8565982,94.9057221 65.8509864,94.9034151 65.8453747,94.9014375 M144.86259,55.9853335 C144.47439,50.0303878 143.277769,44.1519058 142.233986,38.2862777 C141.952739,36.7072349 140.423706,26 139.734783,26 C139.502391,35.1094058 138.701893,44.0803858 137.669664,53.1393651 C137.361018,55.8475668 137.037848,58.5564277 136.825262,61.2741874 C136.653609,63.4695546 136.959614,66.1220564 136.427819,68.2455739 C135.749129,70.9524573 132.348087,73.4783984 129.702978,74.410795 C123.102915,76.7373371 117.597802,67.1077689 111.960977,64.2911336 C104.643272,60.6347152 92.0637391,59.7639895 84.5816434,64.5297918 C76.9361472,59.7639895 64.356614,60.6347152 57.0389092,64.2911336 C51.4024147,67.1077689 45.8969708,76.7373371 39.2972383,74.410795 C36.6521296,73.4783984 33.2504268,70.9524573 32.572397,68.2455739 C32.0402723,66.1220564 32.346277,63.4695546 32.174954,61.2741874 C31.9623682,58.5564277 31.6388681,55.8475668 31.3302226,53.1393651 C30.2983232,44.0803858 29.4974953,35.1094058 29.2654335,26 C28.5761802,26 27.0468169,36.7072349 26.7658999,38.2862777 C25.7221169,44.1519058 24.5258266,50.0303878 24.1376265,55.9853335 C23.738533,62.1047422 24.2148704,68.1674622 25.4695887,74.1632765 C26.0687242,77.0277016 26.7685407,79.8756475 27.518863,82.7041478 C28.352701,85.8467429 27.198994,91.9661516 27.5723395,95.1921317 C28.2787581,101.29572 31.1542781,113.199679 34.3833375,118.45096 C35.9440605,120.989096 37.7734867,122.573742 39.816489,124.619148 C41.7825775,126.58809 42.6038717,129.640049 44.7260985,131.73687 C48.6820428,135.645092 54.4456266,137.971304 60.3656788,138.543134 C65.6773527,143.050212 74.505605,146 84.4997781,146 C94.4946114,146 103.322534,143.050212 108.634538,138.543134 C114.55393,137.971304 120.317843,135.645092 124.274118,131.73687 C126.396015,129.640049 127.217309,126.58809 129.183727,124.619148 C131.2264,122.573742 133.055826,120.989096 134.616879,118.45096 C137.845608,113.199679 140.721458,101.29572 141.427547,95.1921317 C141.800892,91.9661516 140.647185,85.8467429 141.481353,82.7041478 C142.231676,79.8756475 142.931162,77.0277016 143.530628,74.1632765 C144.784686,68.1674622 145.261353,62.1047422 144.86259,55.9853335 Z" id="beard_magestic_path-1" />
    </defs>
    <g id="beard_magestic_Facial-Hair/Beard-Magestic" stroke="none" stroke-width="1" fill="none" fill-rule="evenodd">
        <mask id="beard_magestic_mask-2" fill="white">
            <use xlink:href="#beard_magestic_path-1" />
        </mask>
        <use id="beard_magestic_Glorious-Beard" fill="#5E7AA9" xlink:href="#beard_magestic_path-1" />
        <g id="beard_magestic_Facial-Hair-Color" mask="url(#beard_magestic_mask-2)" fill="#724133">
            <rect id="beard_magestic_Color" x="0" y="0" width="168" height="152" />
        </g>
    </g>
</g>
        <g id="shaggy_Accessory" transform="translate(62.000000, 86.000000)"><defs>
        <filter x="-3.1%" y="-9.8%" width="106.2%" height="119.5%" filterUnits="objectBoundingBox" id="prescription_02_filter-1">
            <feOffset dx="0" dy="2" in="SourceAlpha" result="shadowOffsetOuter1" />
            <feColorMatrix values="0 0 0 0 0   0 0 0 0 0   0 0 0 0 0  0 0 0 0.2 0" type="matrix" in="shadowOffsetOuter1" result="shadowMatrixOuter1" />
            <feMerge>
                <feMergeNode in="shadowMatrixOuter1" />
                <feMergeNode in="SourceGraphic" />
            </feMerge>
        </filter>
    </defs>
    <g id="prescription_02_Top/_Resources/Prescription-02" stroke="none" stroke-width="1" fill="none" fill-rule="evenodd">
        <g id="prescription_02_Wayfarers" filter="url(#prescription_02_filter-1)" transform="translate(6.000000, 7.000000)" fill="#252C2F" fill-rule="nonzero">
            <path d="M35.4700694,0 C57.1829942,0 59,10.127 59,20.5 C59,32.5686429 48.7212748,41 34,41 L31.2421498,41 C17.3147125,41 9,33.3359286 9,20.5 C9,10.127 10.8170058,0 32.5299306,0 L35.4700694,0 Z M35.6146394,6 L32.3853606,6 C13,6 13,12.8410159 13,21.5015498 C13,28.5719428 16.116254,37 30.9709365,37 L34,37 C46.3649085,37 55,30.6270373 55,21.5015498 L54.9994766,20.7271501 C54.9825532,12.4367119 54.4184392,6 35.6146394,6 Z" id="prescription_02_Left" />
            <path d="M97.4700694,0 C119.182994,0 121,10.127 121,20.5 C121,32.5686429 110.721275,41 96,41 L93.2421498,41 C79.3147125,41 71,33.3359286 71,20.5 C71,10.127 72.8170058,0 94.5299306,0 L97.4700694,0 Z M97.6146394,6 L94.3853606,6 C75.5815608,6 75.0174468,12.4367119 75.0005234,20.7271501 L75,21.5015498 C75,28.5719428 78.1194833,37 92.9709365,37 L96,37 C108.364909,37 117,30.6270373 117,21.5015498 C117,12.8410159 117,6 97.6146394,6 Z" id="prescription_02_Right" />
            <path d="M2.95454545,5.77156439 C3.64590909,5.09629136 11.2095455,0 32.5,0 C50.3513636,0 54.1302273,1.85267217 59.8502273,4.6518809 L60.2689233,4.85850899 C60.6666014,4.99901896 62.7002447,5.68982981 65.0790606,5.76579519 C67.2462948,5.67278567 69.1000195,5.08540191 69.641698,4.89719767 C76.1703915,1.7220864 82.5610971,0 97.5,0 C118.790455,0 126.354091,5.09629136 127.045455,5.77156439 C128.679318,5.77156439 130,7.06150904 130,8.65734659 L130,11.5431288 C130,13.1389663 128.679318,14.428911 127.045455,14.428911 C127.045455,14.428911 120.143997,14.428911 120.143997,17.3146932 C120.143997,20.2004754 118.181818,13.1389663 118.181818,11.5431288 L118.181818,8.73240251 C114.578575,7.35340151 108.128411,4.78617535 97.5,4.78617535 C85.6584651,4.78617535 79.7610984,6.88602813 74.7022935,8.97112368 L74.7588636,9.10752861 L74.7563667,11.0937608 L72.5391666,16.4436339 L69.8004908,15.3608351 C69.5558969,15.2641292 69.0281396,15.090392 68.2963505,14.9099044 C66.256272,14.4067419 64.1589087,14.253569 62.3040836,14.6343084 C61.6235903,14.7739931 60.9922286,14.9836085 60.4128127,15.266732 L57.7704824,16.5578701 L55.1266751,11.3962031 L55.2440909,9.10175705 L55.3248203,8.90683855 C50.9620526,6.87386374 46.9392639,4.78617535 32.5,4.78617535 C21.8721459,4.78617535 15.422131,7.3524397 11.8181818,8.7314671 L11.8181818,11.5431288 C11.8181818,13.1389663 8.86363636,20.2004754 8.86363636,17.3146932 C8.86363636,14.428911 2.95454545,14.428911 2.95454545,14.428911 C1.32363636,14.428911 0,13.1389663 0,11.5431288 L0,8.65734659 C0,7.06150904 1.32363636,5.77156439 2.95454545,5.77156439 Z" id="prescription_02_Stuff" />
        </g>
    </g>
</g>
        <mask id="shaggy_mask-2" fill="white">
            <use xlink:href="#shaggy_path-1" />
        </mask>
        <use id="shaggy_Shaggy-Hair" fill="" transform="translate(143.465161, 67.234158) scale(-1, 1) translate(-143.465161, -67.234158)" xlink:href="#shaggy_path-1" />
        <g id="shaggy_Hair-Color" mask="url(#shaggy_mask-2)" fill="#B58143" transform="translate(143.465161, 67.234158) scale(-1, 1) translate(-143.465161, -67.234158)">
            <g transform="translate(1.000000, 0.000000)" id="shaggy_Color">
                <rect x="0" y="0" width="264" height="280" />
            </g>
        </g>
    </g>
</g>
    </g>
</svg>